<?xml version="1.0" encoding="UTF-8"?>
<!DOCTYPE svg PUBLIC "-//W3C//DTD SVG 1.1//EN" "http://www.w3.org/Graphics/SVG/1.1/DTD/svg11.dtd">
<svg xmlns="http://www.w3.org/2000/svg" version="1.1" width="900px" height="900px" style="shape-rendering:geometricPrecision; text-rendering:geometricPrecision; image-rendering:optimizeQuality; fill-rule:evenodd; clip-rule:evenodd" xmlns:xlink="http://www.w3.org/1999/xlink">
<g><path style="opacity:0.992" fill="#fbd300" d="M 40.5,-0.5 C 124.833,-0.5 209.167,-0.5 293.5,-0.5C 293.667,76.5007 293.5,153.501 293,230.5C 208.979,284.531 124.979,338.531 41,392.5C 40.5,261.5 40.3333,130.5 40.5,-0.5 Z"/></g>
<g><path style="opacity:0.99" fill="#fbd300" d="M 323.5,-0.5 C 407.833,-0.5 492.167,-0.5 576.5,-0.5C 576.667,38.5014 576.5,77.5014 576,116.5C 492.218,170.304 408.385,223.971 324.5,277.5C 323.5,184.836 323.167,92.1691 323.5,-0.5 Z"/></g>
<g><path style="opacity:0.991" fill="#fbd300" d="M 606.5,-0.5 C 691.167,-0.5 775.833,-0.5 860.5,-0.5C 859.525,1.19266 858.192,2.69266 856.5,4C 775.232,55.6056 694.232,107.606 613.5,160C 611.35,161.411 609.016,162.245 606.5,162.5C 606.5,108.167 606.5,53.8333 606.5,-0.5 Z"/></g>
<g><path style="opacity:0.988" fill="#1d3a5c" d="M 858.5,34.5 C 859.117,34.6107 859.617,34.944 860,35.5C 860.667,109.5 860.667,183.5 860,257.5C 847.246,258.489 834.413,258.822 821.5,258.5C 821.5,268.5 821.5,278.5 821.5,288.5C 834.413,288.178 847.246,288.511 860,289.5C 860.667,452.167 860.667,614.833 860,777.5C 775.903,778.665 691.737,778.832 607.5,778C 606.503,734.239 606.17,690.406 606.5,646.5C 619.167,646.5 631.833,646.5 644.5,646.5C 644.5,636.167 644.5,625.833 644.5,615.5C 631.833,615.5 619.167,615.5 606.5,615.5C 606.333,475.833 606.5,336.166 607,196.5C 690.813,142.351 774.646,88.3512 858.5,34.5 Z"/></g>
<g><path style="opacity:0.992" fill="#1d3a5c" d="M 574.5,149.5 C 576.498,263.495 577.165,377.828 576.5,492.5C 563.833,492.5 551.167,492.5 538.5,492.5C 538.5,502.833 538.5,513.167 538.5,523.5C 551.167,523.5 563.833,523.5 576.5,523.5C 576.667,608.167 576.5,692.834 576,777.5C 539.571,778.663 503.071,778.829 466.5,778C 465.511,765.246 465.178,752.413 465.5,739.5C 455.167,739.5 444.833,739.5 434.5,739.5C 434.822,752.413 434.489,765.246 433.5,778C 396.835,778.5 360.168,778.667 323.5,778.5C 323.333,622.5 323.5,466.5 324,310.5C 407.65,256.934 491.15,203.267 574.5,149.5 Z"/></g>
<g><path style="opacity:0.988" fill="#1d3a5c" d="M 290.5,264.5 C 291.5,264.5 292.5,264.5 293.5,264.5C 293.667,435.5 293.5,606.5 293,777.5C 256.571,778.663 220.071,778.829 183.5,778C 182.511,765.246 182.178,752.413 182.5,739.5C 172.167,739.5 161.833,739.5 151.5,739.5C 151.822,752.413 151.489,765.246 150.5,778C 113.835,778.5 77.1682,778.667 40.5,778.5C 40.3333,660.5 40.5,542.5 41,424.5C 124.362,371.273 207.528,317.939 290.5,264.5 Z"/></g>
<g><path style="opacity:0.959" fill="#322b2a" d="M 245.5,899.5 C 242.833,899.5 240.167,899.5 237.5,899.5C 228.76,898.415 220.094,896.415 211.5,893.5C 210.504,887.202 210.17,880.868 210.5,874.5C 217.677,877.245 225.01,879.745 232.5,882C 236.5,882.667 240.5,882.667 244.5,882C 251.651,880.246 253.317,876.246 249.5,870C 242.465,866.991 235.131,864.991 227.5,864C 212.639,858.445 207.139,847.945 211,832.5C 216.744,819.665 226.744,814.332 241,816.5C 250.013,816.427 258.846,817.594 267.5,820C 268.476,826.076 268.81,832.242 268.5,838.5C 260.239,835.582 251.739,833.582 243,832.5C 238.488,832.457 234.488,833.791 231,836.5C 230.056,839.347 230.556,841.847 232.5,844C 241.179,846.204 249.846,848.537 258.5,851C 267.333,853.501 272.167,859.335 273,868.5C 273.754,876.401 272.087,883.734 268,890.5C 261.312,895.779 253.812,898.779 245.5,899.5 Z"/></g>
<g><path style="opacity:0.94" fill="#322b2a" d="M 697.5,899.5 C 688.5,899.5 679.5,899.5 670.5,899.5C 669.391,898.71 668.058,898.21 666.5,898C 665.978,897.439 665.645,896.772 665.5,896C 666.566,892.906 667.232,889.74 667.5,886.5C 670.947,886.814 674.28,887.648 677.5,889C 682.833,889.667 688.167,889.667 693.5,889C 701.594,886.189 704.094,880.689 701,872.5C 700.167,871.667 699.333,870.833 698.5,870C 690.699,865.598 683.033,860.931 675.5,856C 665.469,846.718 663.969,836.218 671,824.5C 673.205,821.96 675.705,819.793 678.5,818C 688.431,815.841 698.264,816.008 708,818.5C 708.062,822.148 707.895,825.815 707.5,829.5C 699.254,827.714 690.921,827.214 682.5,828C 675.347,832.446 674.681,837.779 680.5,844C 688.329,848.08 695.996,852.413 703.5,857C 712.054,864.672 714.887,874.172 712,885.5C 709.226,892.443 704.393,897.11 697.5,899.5 Z"/></g>
<g><path style="opacity:0.951" fill="#322b2a" d="M 67.5,817.5 C 76.601,816.88 85.4343,817.546 94,819.5C 103.405,845.216 112.905,870.883 122.5,896.5C 114.862,897.497 107.196,897.831 99.5,897.5C 98.9421,892.937 97.6088,888.604 95.5,884.5C 85.5,883.167 75.5,883.167 65.5,884.5C 63.8333,888.5 62.1667,892.5 60.5,896.5C 53.1968,897.497 45.8635,897.831 38.5,897.5C 48.1662,870.834 57.8329,844.167 67.5,817.5 Z M 79.5,841.5 C 80.7899,842.058 81.6232,843.058 82,844.5C 83.91,851.898 86.41,859.065 89.5,866C 83.4724,866.83 77.4724,866.664 71.5,865.5C 74.3723,857.55 77.039,849.55 79.5,841.5 Z"/></g>
<g><path style="opacity:0.921" fill="#322b2a" d="M 130.5,817.5 C 144.837,817.333 159.171,817.5 173.5,818C 189.745,821.997 195.578,832.163 191,848.5C 189.193,854.307 185.36,858.141 179.5,860C 183.991,862.457 187.491,865.957 190,870.5C 194.731,879.293 198.898,888.293 202.5,897.5C 194.826,897.666 187.159,897.5 179.5,897C 174.933,888.46 170.433,879.96 166,871.5C 162.032,868.548 157.532,867.214 152.5,867.5C 152.5,877.5 152.5,887.5 152.5,897.5C 144.913,897.814 137.413,897.481 130,896.5C 129.177,870.095 129.343,843.761 130.5,817.5 Z M 152.5,834.5 C 157.599,834.175 162.599,834.675 167.5,836C 171.5,840.667 171.5,845.333 167.5,850C 162.716,852.032 157.716,852.866 152.5,852.5C 152.5,846.5 152.5,840.5 152.5,834.5 Z"/></g>
<g><path style="opacity:0.901" fill="#322b2a" d="M 605.5,817.5 C 616.838,817.333 628.172,817.5 639.5,818C 645.974,819.807 650.14,823.974 652,830.5C 654.065,842.195 650.232,851.362 640.5,858C 643.667,859.833 646.167,862.333 648,865.5C 652.769,876.186 656.602,887.186 659.5,898.5C 655.445,898.824 651.445,898.491 647.5,897.5C 645.163,891.656 643.33,885.656 642,879.5C 640.486,874.971 638.319,870.805 635.5,867C 629.679,865.05 623.679,864.217 617.5,864.5C 617.5,875.833 617.5,887.167 617.5,898.5C 613.5,898.5 609.5,898.5 605.5,898.5C 606.812,871.498 606.812,844.498 605.5,817.5 Z M 616.5,827.5 C 622.925,827.13 629.258,827.63 635.5,829C 643.491,836.625 643.491,844.291 635.5,852C 629.311,853.886 622.977,854.719 616.5,854.5C 616.5,845.5 616.5,836.5 616.5,827.5 Z"/></g>
<g><path style="opacity:0.912" fill="#322b2a" d="M 351.5,899.5 C 345.167,899.5 338.833,899.5 332.5,899.5C 319.768,893.409 313.601,883.076 314,868.5C 313.5,851.503 313.333,834.503 313.5,817.5C 317.5,817.5 321.5,817.5 325.5,817.5C 324.189,836.187 324.356,854.854 326,873.5C 328.681,888.59 337.181,893.423 351.5,888C 355.428,884.312 357.928,879.812 359,874.5C 360.784,855.523 360.951,836.523 359.5,817.5C 363.5,817.5 367.5,817.5 371.5,817.5C 371.919,836.208 371.419,854.875 370,873.5C 368.459,885.622 362.293,894.288 351.5,899.5 Z"/></g>
<g><path style="opacity:0.903" fill="#322b2a" d="M 387.5,817.5 C 391.833,817.5 396.167,817.5 400.5,817.5C 406.04,830.247 412.873,842.247 421,853.5C 424.7,860.52 428.367,867.52 432,874.5C 432.769,855.48 432.602,836.48 431.5,817.5C 435.703,817.076 439.703,817.576 443.5,819C 442.167,845 442.167,871 443.5,897C 440.108,898.783 436.608,898.949 433,897.5C 420.999,877.8 409.332,857.8 398,837.5C 398.336,857.818 398.503,878.151 398.5,898.5C 394.833,898.5 391.167,898.5 387.5,898.5C 388.825,871.488 388.825,844.488 387.5,817.5 Z"/></g>
<g><path style="opacity:0.856" fill="#322b2a" d="M 460.5,817.5 C 464.5,817.5 468.5,817.5 472.5,817.5C 471.307,844.498 471.307,871.498 472.5,898.5C 468.5,898.5 464.5,898.5 460.5,898.5C 461.79,871.499 461.79,844.499 460.5,817.5 Z"/></g>
<g><path style="opacity:0.947" fill="#312a29" d="M 480.5,817.5 C 484.767,817.203 488.934,817.536 493,818.5C 499.127,839.47 505.127,860.47 511,881.5C 515.592,865.722 520.592,850.056 526,834.5C 527.361,828.859 528.528,823.192 529.5,817.5C 533.5,817.5 537.5,817.5 541.5,817.5C 534.63,841.277 526.463,864.61 517,887.5C 516.333,890.833 515.667,894.167 515,897.5C 511.943,898.451 508.777,898.784 505.5,898.5C 505.662,896.473 505.495,894.473 505,892.5C 498.197,872.425 491.197,852.425 484,832.5C 482.725,827.513 481.559,822.513 480.5,817.5 Z"/></g>
<g><path style="opacity:0.87" fill="#322b2a" d="M 549.5,817.5 C 563.5,817.5 577.5,817.5 591.5,817.5C 591.448,821.198 591.114,824.865 590.5,828.5C 580.482,828.59 570.482,828.257 560.5,827.5C 560.334,835.507 560.5,843.507 561,851.5C 569.081,850.518 577.248,850.184 585.5,850.5C 585.5,854.167 585.5,857.833 585.5,861.5C 577.169,861.116 568.836,860.782 560.5,860.5C 560.5,869.833 560.5,879.167 560.5,888.5C 571.826,887.967 583.159,887.634 594.5,887.5C 594.5,891.167 594.5,894.833 594.5,898.5C 579.5,898.5 564.5,898.5 549.5,898.5C 549.5,871.5 549.5,844.5 549.5,817.5 Z"/></g>
<g><path style="opacity:0.868" fill="#322b2a" d="M 725.5,817.5 C 729.5,817.5 733.5,817.5 737.5,817.5C 736.307,844.498 736.307,871.498 737.5,898.5C 733.5,898.5 729.5,898.5 725.5,898.5C 726.792,871.499 726.792,844.499 725.5,817.5 Z"/></g>
<g><path style="opacity:0.919" fill="#322b2a" d="M 746.5,817.5 C 769.167,817.5 791.833,817.5 814.5,817.5C 820.299,830.437 826.132,843.437 832,856.5C 836.103,845.624 840.77,834.957 846,824.5C 846.662,822.187 847.162,819.854 847.5,817.5C 851.833,817.5 856.167,817.5 860.5,817.5C 856.382,827.737 851.215,837.404 845,846.5C 842.077,852.015 839.41,857.682 837,863.5C 836.663,866.861 836.163,870.194 835.5,873.5C 836.44,881.798 836.774,890.131 836.5,898.5C 832.5,898.5 828.5,898.5 824.5,898.5C 824.667,887.162 824.5,875.828 824,864.5C 823.333,862.5 822.667,860.5 822,858.5C 815.573,845.312 808.907,832.312 802,819.5C 800.711,822.351 800.211,825.351 800.5,828.5C 793.535,827.659 786.535,827.326 779.5,827.5C 779.5,851.167 779.5,874.833 779.5,898.5C 775.818,898.665 772.152,898.499 768.5,898C 767.941,897.275 767.608,896.442 767.5,895.5C 768.479,872.86 768.813,850.193 768.5,827.5C 761.476,827.669 754.476,827.836 747.5,828C 746.544,824.606 746.211,821.106 746.5,817.5 Z"/></g>
</svg>
