<svg xmlns="http://www.w3.org/2000/svg" xmlns:xlink="http://www.w3.org/1999/xlink" viewBox="0 0 1920 1080"><defs><style>.cls-1{isolation:isolate;}.cls-2{fill:url(#Безымянный_градиент_109);}.cls-3{opacity:0.3;mix-blend-mode:color-dodge;}.cls-4{fill:aqua;}</style><radialGradient id="Безымянный_градиент_109" cx="1063.4" cy="537.31" r="344.92" gradientTransform="matrix(5.55, 0, 0, -5.55, -4367.06, 3539.53)" gradientUnits="userSpaceOnUse"><stop offset="0" stop-color="aqua"/><stop offset="1" stop-color="#0d11ab"/></radialGradient></defs><g class="cls-1"><g id="Layer_1" data-name="Layer 1"><rect class="cls-2" width="1920" height="1080" transform="translate(1920 1080) rotate(-180)"/><g class="cls-3"><path class="cls-4" d="M445.25,336.09a30,30,0,1,1,30,30A30,30,0,0,1,445.25,336.09Zm6,0a24,24,0,1,0,24-24A24,24,0,0,0,451.25,336.09Z"/><path class="cls-4" d="M432.36,336.09A42.89,42.89,0,1,1,475.25,379,42.94,42.94,0,0,1,432.36,336.09Zm6,0a36.89,36.89,0,1,0,36.89-36.89A36.94,36.94,0,0,0,438.36,336.09Z"/><circle class="cls-4" cx="475.25" cy="336.09" r="12.69"/><path class="cls-4" d="M121.27,859.87a30,30,0,1,1,30,30A30,30,0,0,1,121.27,859.87Zm6,0a24,24,0,1,0,24-24A24,24,0,0,0,127.27,859.87Z"/><path class="cls-4" d="M108.37,859.87a42.9,42.9,0,1,1,42.9,42.89A42.95,42.95,0,0,1,108.37,859.87Zm6,0a36.9,36.9,0,1,0,36.9-36.9A36.94,36.94,0,0,0,114.37,859.87Z"/><path class="cls-4" d="M138.57,859.87a12.7,12.7,0,1,0,12.7-12.7A12.69,12.69,0,0,0,138.57,859.87Z"/><path class="cls-4" d="M23.4,36.77V196.44l70.2,70.2H317l62.17,62.17v72.32L514.6,536.55H620.69a12.92,12.92,0,0,0,0-25.83H525.3L405,390.43V318.11l-77.3-77.3H104.3L49.23,185.74v-149a12.92,12.92,0,1,0-25.83,0Zm589,486.43a7.2,7.2,0,1,1,7.2,7.2A7.2,7.2,0,0,1,612.4,523.2ZM28.8,37.2a7.6,7.6,0,1,1,7.6,7.6A7.6,7.6,0,0,1,28.8,37.2Z"/><path class="cls-4" d="M127.35,194.5H333.2l24.34-24.34V112.64a3,3,0,1,1,6,0v60l-27.84,27.84H124.88L81.3,156.9V0h6V154.42Z"/><path class="cls-4" d="M107.83,221.18H340.45l51.16,51.16a3,3,0,0,1-4.22,4.23L338,227.16H105.36L55.81,177.61V0h6V175.14Z"/><path class="cls-4" d="M115.4,206.45H362l30.15,30.15a3,3,0,1,1-4.22,4.22l-28.4-28.4H112.93L68.56,168.05V0h6V165.58Z"/><path class="cls-4" d="M346.78,99.9A13.15,13.15,0,1,1,359.93,113,13.17,13.17,0,0,1,346.78,99.9Zm6,0a7.17,7.17,0,1,0,7.17-7.17A7.18,7.18,0,0,0,352.76,99.9Z"/><path class="cls-4" d="M320.49,161.84a12.35,12.35,0,1,1,12.35,12.34A12.36,12.36,0,0,1,320.49,161.84Zm6,0a6.37,6.37,0,1,0,6.37-6.38A6.38,6.38,0,0,0,326.47,161.84Z"/><path class="cls-4" d="M320.29,131.36a12.55,12.55,0,1,1,12.55,12.55A12.56,12.56,0,0,1,320.29,131.36Zm6,0a6.57,6.57,0,1,0,6.57-6.57A6.58,6.58,0,0,0,326.27,131.36Z"/><path class="cls-4" d="M169.33,105.07a11.75,11.75,0,1,1,11.75,11.75A11.77,11.77,0,0,1,169.33,105.07Zm6,0a5.78,5.78,0,1,0,5.77-5.77A5.78,5.78,0,0,0,175.31,105.07Z"/><path class="cls-4" d="M282.6,295.2A11.8,11.8,0,1,1,294.4,307,11.81,11.81,0,0,1,282.6,295.2Zm6,0a5.8,5.8,0,1,0,5.8-5.8A5.8,5.8,0,0,0,288.6,295.2Z"/><path class="cls-4" d="M182.6,429.6a11.8,11.8,0,1,1,11.8,11.8A11.81,11.81,0,0,1,182.6,429.6Zm6,0a5.8,5.8,0,1,0,5.8-5.8A5.8,5.8,0,0,0,188.6,429.6Z"/><path class="cls-4" d="M94.8,423.6a11.4,11.4,0,1,0,11.4-11.4A11.39,11.39,0,0,0,94.8,423.6Z"/><path class="cls-4" d="M46.2,499.8a11.4,11.4,0,1,0,11.4-11.4A11.39,11.39,0,0,0,46.2,499.8Z"/><path class="cls-4" d="M63,525a11.4,11.4,0,1,0,11.4-11.4A11.39,11.39,0,0,0,63,525Z"/><path class="cls-4" d="M149.8,484a11.8,11.8,0,1,1,11.8,11.8A11.81,11.81,0,0,1,149.8,484Zm6,0a5.8,5.8,0,1,0,5.8-5.8A5.8,5.8,0,0,0,155.8,484Z"/><path class="cls-4" d="M189,524a11.8,11.8,0,1,1,11.8,11.8A11.81,11.81,0,0,1,189,524Zm6,0a5.8,5.8,0,1,0,5.8-5.8A5.8,5.8,0,0,0,195,524Z"/><path class="cls-4" d="M150.6,556.8a11.8,11.8,0,1,1,11.8,11.8A11.81,11.81,0,0,1,150.6,556.8Zm6,0a5.8,5.8,0,1,0,5.8-5.8A5.8,5.8,0,0,0,156.6,556.8Z"/><path class="cls-4" d="M150.6,592.8a11.8,11.8,0,1,1,11.8,11.8A11.81,11.81,0,0,1,150.6,592.8Zm6,0a5.8,5.8,0,1,0,5.8-5.8A5.8,5.8,0,0,0,156.6,592.8Z"/><path class="cls-4" d="M142.2,682.2A11.8,11.8,0,1,1,154,694,11.81,11.81,0,0,1,142.2,682.2Zm6,0a5.8,5.8,0,1,0,5.8-5.8A5.8,5.8,0,0,0,148.2,682.2Z"/><path class="cls-4" d="M142.2,783A11.8,11.8,0,1,1,154,794.8,11.81,11.81,0,0,1,142.2,783Zm6,0a5.8,5.8,0,1,0,5.8-5.8A5.8,5.8,0,0,0,148.2,783Z"/><path class="cls-4" d="M312.2,920.6A11.8,11.8,0,1,1,324,932.4,11.81,11.81,0,0,1,312.2,920.6Zm6,0a5.8,5.8,0,1,0,5.8-5.8A5.8,5.8,0,0,0,318.2,920.6Z"/><path class="cls-4" d="M312.2,977.4A11.8,11.8,0,1,1,324,989.2,11.81,11.81,0,0,1,312.2,977.4Zm6,0a5.8,5.8,0,1,0,5.8-5.8A5.8,5.8,0,0,0,318.2,977.4Z"/><path class="cls-4" d="M312.2,1024.2A11.8,11.8,0,1,1,324,1036,11.81,11.81,0,0,1,312.2,1024.2Zm6,0a5.8,5.8,0,1,0,5.8-5.8A5.8,5.8,0,0,0,318.2,1024.2Z"/><path class="cls-4" d="M261,1024.2a11.8,11.8,0,1,1,11.8,11.8A11.81,11.81,0,0,1,261,1024.2Zm6,0a5.8,5.8,0,1,0,5.8-5.8A5.8,5.8,0,0,0,267,1024.2Z"/><path class="cls-4" d="M209,1051a11.8,11.8,0,1,1,11.8,11.8A11.81,11.81,0,0,1,209,1051Zm6,0a5.8,5.8,0,1,0,5.8-5.8A5.8,5.8,0,0,0,215,1051Z"/><path class="cls-4" d="M25.4,1016.2A11.8,11.8,0,1,1,37.2,1028,11.81,11.81,0,0,1,25.4,1016.2Zm6,0a5.8,5.8,0,1,0,5.8-5.8A5.8,5.8,0,0,0,31.4,1016.2Z"/><path class="cls-4" d="M25.4,980.6a11.8,11.8,0,1,1,11.8,11.8A11.81,11.81,0,0,1,25.4,980.6Zm6,0a5.8,5.8,0,1,0,5.8-5.8A5.8,5.8,0,0,0,31.4,980.6Z"/><path class="cls-4" d="M86.4,783a11.8,11.8,0,1,1,11.8,11.8A11.81,11.81,0,0,1,86.4,783Zm6,0a5.8,5.8,0,1,0,5.8-5.8A5.8,5.8,0,0,0,92.4,783Z"/><path class="cls-4" d="M14.8,665.2A11.8,11.8,0,1,1,26.6,677,11.81,11.81,0,0,1,14.8,665.2Zm6,0a5.8,5.8,0,1,0,5.8-5.8A5.8,5.8,0,0,0,20.8,665.2Z"/><path class="cls-4" d="M53.4,847.8a11.8,11.8,0,1,1,11.8,11.8A11.81,11.81,0,0,1,53.4,847.8Zm6,0a5.8,5.8,0,1,0,5.8-5.8A5.8,5.8,0,0,0,59.4,847.8Z"/><path class="cls-4" d="M343,431.6a11.8,11.8,0,1,1,11.8,11.8A11.81,11.81,0,0,1,343,431.6Zm6,0a5.8,5.8,0,1,0,5.8-5.8A5.8,5.8,0,0,0,349,431.6Z"/><path class="cls-4" d="M376.6,459.6a11.8,11.8,0,1,1,11.8,11.8A11.81,11.81,0,0,1,376.6,459.6Zm6,0a5.8,5.8,0,1,0,5.8-5.8A5.8,5.8,0,0,0,382.6,459.6Z"/><path class="cls-4" d="M301,344a11.8,11.8,0,1,1,11.8,11.8A11.81,11.81,0,0,1,301,344Zm6,0a5.8,5.8,0,1,0,5.8-5.8A5.8,5.8,0,0,0,307,344Z"/><path class="cls-4" d="M323.4,372a11.8,11.8,0,1,1,11.8,11.8A11.81,11.81,0,0,1,323.4,372Zm6,0a5.8,5.8,0,1,0,5.8-5.8A5.8,5.8,0,0,0,329.4,372Z"/><path class="cls-4" d="M300.2,398.4A11.8,11.8,0,1,1,312,410.2,11.81,11.81,0,0,1,300.2,398.4Zm6,0a5.8,5.8,0,1,0,5.8-5.8A5.8,5.8,0,0,0,306.2,398.4Z"/><path class="cls-4" d="M547.73,170.4a11.75,11.75,0,1,1,11.75,11.75A11.76,11.76,0,0,1,547.73,170.4Zm6,0a5.78,5.78,0,1,0,5.77-5.78A5.78,5.78,0,0,0,553.71,170.4Z"/><path class="cls-4" d="M509.49,225.37a11.75,11.75,0,1,1,11.75,11.75A11.76,11.76,0,0,1,509.49,225.37Zm6,0a5.78,5.78,0,1,0,5.77-5.78A5.78,5.78,0,0,0,515.47,225.37Z"/><path class="cls-4" d="M553.8,266.4a11.8,11.8,0,1,1,11.8,11.8A11.81,11.81,0,0,1,553.8,266.4Zm6,0a5.8,5.8,0,1,0,5.8-5.8A5.8,5.8,0,0,0,559.8,266.4Z"/><path class="cls-4" d="M196.22,105.07A11.75,11.75,0,1,1,208,116.82,11.77,11.77,0,0,1,196.22,105.07Zm6,0A5.78,5.78,0,1,0,208,99.3,5.78,5.78,0,0,0,202.19,105.07Z"/><path class="cls-4" d="M389.8,245.6A12.2,12.2,0,1,1,402,257.8,12.21,12.21,0,0,1,389.8,245.6Zm6,0a6.2,6.2,0,1,0,6.2-6.2A6.21,6.21,0,0,0,395.8,245.6Z"/><path class="cls-4" d="M389.4,281.6A12.6,12.6,0,1,1,402,294.2,12.61,12.61,0,0,1,389.4,281.6Zm6,0A6.6,6.6,0,1,0,402,275,6.61,6.61,0,0,0,395.4,281.6Z"/><rect class="cls-4" x="109.59" y="13.66" width="45.27" height="51.98" transform="translate(264.44 79.3) rotate(180)"/><rect class="cls-4" x="171.62" y="11.87" width="45.27" height="51.98" transform="translate(388.5 75.72) rotate(180)"/><rect class="cls-4" x="232.81" y="11.87" width="45.27" height="51.98" transform="translate(510.88 75.72) rotate(180)"/><polygon class="cls-4" points="140.31 163.93 321.69 163.93 321.69 157.95 142.79 157.95 123.33 138.49 123.33 63.85 117.35 63.85 117.35 140.97 140.31 163.93"/><polygon class="cls-4" points="321.07 133.75 321.11 127.78 162.21 126.59 147.82 112.2 147.82 53.69 141.85 53.69 141.85 114.68 159.72 132.55 321.07 133.75"/><rect class="cls-4" x="205.18" y="53.69" width="5.97" height="42.42"/><rect class="cls-4" x="178.29" y="54.29" width="5.97" height="41.23"/><path class="cls-4" d="M308,117H262.5L238.64,93.17V59.07a3,3,0,1,1,6,0V90.69L265,111.05h40.54l23.95-23.94V0h6V89.58Z"/><path class="cls-4" d="M300.22,100.59H270L254.77,85.4V60.26a3,3,0,0,1,6,0V82.93l11.69,11.69h25.31l16-16V0h6V81.07Z"/><path class="cls-4" d="M294.25,88.94h-15l-9.51-9.51V59.67a3,3,0,1,1,6,0V77l6,6h10.07l10.5-10.5V0h6V74.94Z"/><path class="cls-4" d="M452.38,220h61.3a3,3,0,0,1,0,6H449.9L403.14,179.2V0h6V176.73Z"/><path class="cls-4" d="M447.2,237.12h38.24l23.1,23.1H555.9a3,3,0,0,1,0,6H506.06L483,243.09H444.73l-58.32-58.31V0h6V182.31Z"/><path class="cls-4" d="M452.29,202.06H480l25.49-29h45.45a3,3,0,1,0,0-6H502.76l-25.49,29h-22.5L426.64,168V3.9a3,3,0,0,0-6,0V170.44Z"/><path class="cls-4" d="M660.64,886.26H454.8L430.46,910.6v57.52a3,3,0,0,1-6,0v-60l27.84-27.84H663.11l43.58,43.57V1080h-6V926.34Z"/><path class="cls-4" d="M680.16,859.58H447.54l-51.16-51.17a3,3,0,1,1,4.22-4.22L450,853.6H682.63l49.55,49.55V1080h-6V905.63Z"/><path class="cls-4" d="M672.59,874.31H426l-30.15-30.15a3,3,0,1,1,4.23-4.22l28.4,28.4H675.06l44.37,44.37V1080h-6V915.18Z"/><path class="cls-4" d="M414.92,980.86A13.15,13.15,0,1,1,428.07,994,13.16,13.16,0,0,1,414.92,980.86Zm6,0a7.17,7.17,0,1,0,7.17-7.17A7.17,7.17,0,0,0,420.9,980.86Z"/><path class="cls-4" d="M442.8,918.93a12.35,12.35,0,1,1,12.35,12.34A12.36,12.36,0,0,1,442.8,918.93Zm6,0a6.37,6.37,0,1,0,6.37-6.38A6.38,6.38,0,0,0,448.78,918.93Z"/><path class="cls-4" d="M442.6,949.4a12.55,12.55,0,1,1,12.55,12.54A12.56,12.56,0,0,1,442.6,949.4Zm6,0a6.57,6.57,0,1,0,6.57-6.58A6.58,6.58,0,0,0,448.58,949.4Z"/><path class="cls-4" d="M595.16,975.69a11.75,11.75,0,1,1,11.75,11.75A11.76,11.76,0,0,1,595.16,975.69Zm6,0a5.78,5.78,0,1,0,5.78-5.78A5.78,5.78,0,0,0,601.13,975.69Z"/><path class="cls-4" d="M216.76,910.36a11.75,11.75,0,1,1,11.75,11.75A11.76,11.76,0,0,1,216.76,910.36Zm6,0a5.78,5.78,0,1,0,5.78-5.77A5.79,5.79,0,0,0,222.73,910.36Z"/><path class="cls-4" d="M253.8,857.79a11.75,11.75,0,1,1,11.75,11.75A11.77,11.77,0,0,1,253.8,857.79Zm6,0a5.78,5.78,0,1,0,5.78-5.77A5.78,5.78,0,0,0,259.77,857.79Z"/><path class="cls-4" d="M210.59,814.36a11.8,11.8,0,1,1,11.8,11.8A11.82,11.82,0,0,1,210.59,814.36Zm6,0a5.8,5.8,0,1,0,5.8-5.8A5.8,5.8,0,0,0,216.59,814.36Z"/><path class="cls-4" d="M568.27,975.69A11.75,11.75,0,1,1,580,987.44,11.76,11.76,0,0,1,568.27,975.69Zm6,0a5.78,5.78,0,1,0,5.77-5.78A5.78,5.78,0,0,0,574.25,975.69Z"/><path class="cls-4" d="M377.39,836.36a12.2,12.2,0,1,1,12.2,12.2A12.21,12.21,0,0,1,377.39,836.36Zm6,0a6.2,6.2,0,1,0,6.2-6.2A6.21,6.21,0,0,0,383.39,836.36Z"/><path class="cls-4" d="M376.19,799.56a12.6,12.6,0,1,1,12.6,12.6A12.61,12.61,0,0,1,376.19,799.56Zm6,0a6.6,6.6,0,1,0,6.6-6.6A6.61,6.61,0,0,0,382.19,799.56Z"/><rect class="cls-4" x="633.14" y="1015.12" width="45.27" height="51.98"/><rect class="cls-4" x="571.11" y="1016.91" width="45.27" height="51.98"/><rect class="cls-4" x="509.92" y="1016.91" width="45.27" height="51.98"/><polygon class="cls-4" points="664.66 1016.91 670.64 1016.91 670.64 939.79 647.68 916.83 466.3 916.83 466.3 922.81 645.21 922.81 664.66 942.27 664.66 1016.91"/><polygon class="cls-4" points="640.17 1027.07 646.14 1027.07 646.14 966.08 628.27 948.21 466.92 947.01 466.88 952.98 625.78 954.17 640.17 968.56 640.17 1027.07"/><rect class="cls-4" x="576.84" y="984.65" width="5.97" height="42.42"/><rect class="cls-4" x="603.72" y="985.24" width="5.97" height="41.23"/><path class="cls-4" d="M480,963.74h45.5l23.85,23.85v34.1a3,3,0,1,1-6,0V990.07L523,969.71H482.48l-23.94,23.94V1080h-6V991.18Z"/><path class="cls-4" d="M487.77,980.17H518l15.19,15.19v25.14a3,3,0,0,1-6,0V997.83l-11.7-11.69h-25.3l-16,16V1080h-6V999.69Z"/><path class="cls-4" d="M493.74,991.82h15l9.51,9.51v19.76a3,3,0,1,1-6,0v-17.28l-6-6H496.22l-10.5,10.5V1080h-6v-74.18Z"/><path class="cls-4" d="M335.61,860.77H274.32a3,3,0,1,1,0-6h63.77l46.76,46.76V1080h-6V904Z"/><path class="cls-4" d="M340.79,843.64H302.55l-23.1-23.1H232.09a3,3,0,0,1,0-6h49.84l23.1,23.1h38.24L401.58,896v184h-6V898.45Z"/><path class="cls-4" d="M333.22,884.67h-22.5l-25.49,29H237.07a3,3,0,0,1,0-6h45.45l25.5-29H335.7l31.62,31.62V1080h-6V912.79Z"/><path class="cls-4" d="M52,409.2a11.63,11.63,0,0,0,11.6-11.6V280.8a11.6,11.6,0,1,0-23.2,0V397.6A11.63,11.63,0,0,0,52,409.2Z"/><rect class="cls-4" y="292.6" width="286.8" height="6"/><polygon class="cls-4" points="274.36 346.6 306.8 346.6 306.8 340.6 276.84 340.6 245.64 309.4 0 309.4 0 315.4 243.16 315.4 274.36 346.6"/><polygon class="cls-4" points="275.16 373 326.8 373 326.8 367 277.64 367 236.84 326.2 0 326.2 0 332.2 234.36 332.2 275.16 373"/><polygon class="cls-4" points="277.16 401.4 304.4 401.4 304.4 395.4 279.64 395.4 229.64 345.4 0 345.4 0 351.4 227.16 351.4 277.16 401.4"/><path class="cls-4" d="M221.64,363l66,66H346.8a3,3,0,0,1,0,6H285.16l-66-66H0v-6Z"/><path class="cls-4" d="M212.84,377.4l78.4,78.4H379.6a3,3,0,0,1,0,6H288.76l-78.4-78.4H0v-6Z"/><polygon class="cls-4" points="504.61 562.28 678.64 562.28 678.64 556.28 507.09 556.28 435.99 485.19 255.1 485.19 202.43 432.52 198.19 436.76 252.62 491.19 433.51 491.19 504.61 562.28"/><polygon class="cls-4" points="496.76 578.6 722.8 578.6 722.8 572.6 499.24 572.6 428.84 502.2 252.04 502.2 231.24 481.4 168.4 481.4 168.4 487.4 228.76 487.4 249.56 508.2 426.36 508.2 496.76 578.6"/><polygon class="cls-4" points="487.16 592.2 747.6 592.2 747.6 586.2 489.64 586.2 423.64 520.2 208.4 520.2 208.4 526.2 421.16 526.2 487.16 592.2"/><polygon class="cls-4" points="481.56 604.2 755.6 604.2 755.6 598.2 484.04 598.2 418.04 532.2 248.76 532.2 227.36 553.6 169.2 553.6 169.2 559.6 229.84 559.6 251.24 538.2 415.56 538.2 481.56 604.2"/><polygon class="cls-4" points="475.96 617 763.6 617 763.6 611 478.44 611 413.24 545.8 255.96 545.8 211.76 590 170.8 590 170.8 596 214.24 596 258.44 551.8 410.76 551.8 475.96 617"/><path class="cls-4" d="M98.7,775.8a3,3,0,0,0,3-3V676.46L42,616.76V490.24l59.72-59.72a3,3,0,0,0-4.24-4.24L36,487.76V619.24l59.7,59.7V772.8A3,3,0,0,0,98.7,775.8Z"/><path class="cls-4" d="M65.4,841.2a6,6,0,0,0,6-6V700.11L40.24,669a6,6,0,0,0-8.48,8.48L59.4,705.09V835.2A6,6,0,0,0,65.4,841.2Z"/><path class="cls-4" d="M146.4,780a3,3,0,0,0,2.12-.88,3,3,0,0,0,0-4.24L121.2,747.56v-73.8L59.4,612V493.2a3,3,0,0,0-6,0V614.44l61.8,61.8V750l29.08,29.08A3,3,0,0,0,146.4,780Z"/><path class="cls-4" d="M145.8,681.6a3,3,0,0,0,2.12-5.12L77.4,606V525.6a3,3,0,0,0-6,0v82.84l72.28,72.28A3,3,0,0,0,145.8,681.6Z"/><polygon class="cls-4" points="128.76 954.6 293.64 954.6 320.92 927.32 316.68 923.08 291.16 948.6 131.24 948.6 94.04 911.4 0 911.4 0 917.4 91.56 917.4 128.76 954.6"/><polygon class="cls-4" points="123.96 980.2 313.6 980.2 313.6 974.2 126.44 974.2 83.64 931.4 0 931.4 0 937.4 81.16 937.4 123.96 980.2"/><polygon class="cls-4" points="314.68 1020.52 318.92 1016.28 296.04 993.4 120.84 993.4 75.64 948.2 0 948.2 0 954.2 73.16 954.2 118.36 999.4 293.56 999.4 314.68 1020.52"/><polygon class="cls-4" points="110.36 1028.2 265.2 1028.2 265.2 1022.2 112.84 1022.2 69.64 979 44.8 979 44.8 985 67.16 985 110.36 1028.2"/><polygon class="cls-4" points="103.96 1054.6 214 1054.6 214 1048.6 106.44 1048.6 70.44 1012.6 44.4 1012.6 44.4 1018.6 67.96 1018.6 103.96 1054.6"/></g><g class="cls-3"><polygon class="cls-4" points="486.92 126.92 518.44 95.4 721.24 95.4 757.2 59.44 757.2 0 751.2 0 751.2 56.96 718.76 89.4 515.96 89.4 482.68 122.68 486.92 126.92"/><polygon class="cls-4" points="466.8 75 708.04 75 735.6 47.44 735.6 0 729.6 0 729.6 44.96 705.56 69 466.8 69 466.8 75"/><polygon class="cls-4" points="512.96 50.4 685.24 50.4 707.1 28.54 707.1 0 701.1 0 701.1 26.06 682.76 44.4 515.44 44.4 491.72 20.68 487.48 24.92 512.96 50.4"/><path class="cls-4" d="M443,72.4A12.6,12.6,0,1,1,455.6,85,12.61,12.61,0,0,1,443,72.4Zm6,0a6.6,6.6,0,1,0,6.6-6.6A6.61,6.61,0,0,0,449,72.4Z"/><path class="cls-4" d="M467,128.4A12.6,12.6,0,1,1,479.6,141,12.61,12.61,0,0,1,467,128.4Zm6,0a6.6,6.6,0,1,0,6.6-6.6A6.61,6.61,0,0,0,473,128.4Z"/><path class="cls-4" d="M605.6,128.4A12.6,12.6,0,1,1,618.2,141,12.61,12.61,0,0,1,605.6,128.4Zm6,0a6.6,6.6,0,1,0,6.6-6.6A6.61,6.61,0,0,0,611.6,128.4Z"/><path class="cls-4" d="M720.8,826.8a12.6,12.6,0,1,1,12.6,12.6A12.61,12.61,0,0,1,720.8,826.8Zm6,0a6.6,6.6,0,1,0,6.6-6.6A6.61,6.61,0,0,0,726.8,826.8Z"/><path class="cls-4" d="M743.6,786a12.6,12.6,0,1,1,12.6,12.6A12.61,12.61,0,0,1,743.6,786Zm6,0a6.6,6.6,0,1,0,6.6-6.6A6.61,6.61,0,0,0,749.6,786Z"/><path class="cls-4" d="M684.4,767.2A12.6,12.6,0,1,1,697,779.8,12.61,12.61,0,0,1,684.4,767.2Zm6,0a6.6,6.6,0,1,0,6.6-6.6A6.61,6.61,0,0,0,690.4,767.2Z"/><path class="cls-4" d="M198,650a12.6,12.6,0,1,1,12.6,12.6A12.61,12.61,0,0,1,198,650Zm6,0a6.6,6.6,0,1,0,6.6-6.6A6.61,6.61,0,0,0,204,650Z"/><path class="cls-4" d="M198,693.6a12.6,12.6,0,1,1,12.6,12.6A12.61,12.61,0,0,1,198,693.6Zm6,0a6.6,6.6,0,1,0,6.6-6.6A6.61,6.61,0,0,0,204,693.6Z"/><path class="cls-4" d="M242,732.4A12.6,12.6,0,1,1,254.6,745,12.61,12.61,0,0,1,242,732.4Zm6,0a6.6,6.6,0,1,0,6.6-6.6A6.61,6.61,0,0,0,248,732.4Z"/><path class="cls-4" d="M467,18.8a12.6,12.6,0,1,1,12.6,12.6A12.61,12.61,0,0,1,467,18.8Zm6,0a6.6,6.6,0,1,0,6.6-6.6A6.61,6.61,0,0,0,473,18.8Z"/><polygon class="cls-4" points="626.44 132.1 728.48 132.1 788.73 71.85 788.73 0 782.73 0 782.73 69.37 725.99 126.11 626.44 126.11 626.44 132.1"/><path class="cls-4" d="M260.4,613.2a12,12,0,0,0,12,12H391L509.83,744H834a12,12,0,0,0,0-24H519.77L401,601.2H272.4A12,12,0,0,0,260.4,613.2ZM827.4,732a6,6,0,1,1,6,6A6,6,0,0,1,827.4,732ZM266.8,612.8a6,6,0,1,1,6,6A6,6,0,0,1,266.8,612.8Z"/><polygon class="cls-4" points="496.76 771 690 771 690 765 499.24 765 382.24 648 218.4 648 218.4 654 379.76 654 496.76 771"/><polygon class="cls-4" points="489.56 787.8 748.8 787.8 748.8 781.8 492.04 781.8 375.64 665.4 236.36 665.4 215.88 685.88 220.12 690.12 238.84 671.4 373.16 671.4 489.56 787.8"/><polygon class="cls-4" points="455.96 831 728.4 831 728.4 825 458.44 825 363.04 729.6 262.8 729.6 262.8 735.6 360.56 735.6 455.96 831"/></g></g></g></svg>